<svg width="1715" height="351" viewBox="0 0 1715 351" fill="none" xmlns="http://www.w3.org/2000/svg">
<path d="M743 175.5L602.75 327.487V23.5125L743 175.5Z" fill="#DCE9F2"/>
<path d="M881 175.5L742.25 327.487V23.5125L881 175.5Z" fill="#DCE9F2"/>
<path d="M1021 175.5L882.25 327.487V23.5125L1021 175.5Z" fill="#DCE9F2"/>
<path d="M1160 175.5L1021.25 327.487V23.5125L1160 175.5Z" fill="#DCE9F2"/>
<path d="M187 175.5L46.75 327.487L46.75 23.5125L187 175.5Z" fill="#DCE9F2"/>
<path d="M325 175.5L186.25 327.487L186.25 23.5125L325 175.5Z" fill="#DCE9F2"/>
<path d="M465 175.5L326.25 327.487L326.25 23.5125L465 175.5Z" fill="#DCE9F2"/>
<path d="M604 175.5L465.25 327.487L465.25 23.5125L604 175.5Z" fill="#DCE9F2"/>
<path d="M1298 175.5L1157.75 327.487V23.5125L1298 175.5Z" fill="#DCE9F2"/>
<path d="M1436 175.5L1297.25 327.487V23.5125L1436 175.5Z" fill="#DCE9F2"/>
<path d="M1576 175.5L1437.25 327.487V23.5125L1576 175.5Z" fill="#DCE9F2"/>
<path d="M1715 175.5L1576.25 327.487V23.5125L1715 175.5Z" fill="#DCE9F2"/>
</svg>
