<svg width="76" height="76" viewBox="0 0 76 76" fill="none" xmlns="http://www.w3.org/2000/svg">
<path d="M51.9703 1.06031C53.9669 -1.27017 57.7606 0.545796 57.1976 3.56254L52.079 30.9894C51.8825 32.0427 52.2626 33.1209 53.0762 33.818L74.2639 51.9706C76.5944 53.9672 74.7784 57.7609 71.7617 57.1979L44.3348 52.0793C43.2815 51.8828 42.2033 52.2629 41.5062 53.0766L23.3536 74.2642C21.357 76.5947 17.5633 74.7787 18.1263 71.762L23.2449 44.3351C23.4414 43.2818 23.0613 42.2036 22.2476 41.5065L1.06 23.3539C-1.27048 21.3573 0.545488 17.5636 3.56223 18.1266L30.9891 23.2452C32.0424 23.4417 33.1206 23.0616 33.8177 22.248L51.9703 1.06031Z" fill="#F5D3CF"/>
</svg>
