<svg width="80" height="80" viewBox="0 0 80 80" fill="none" xmlns="http://www.w3.org/2000/svg">
<path d="M25.473 3.11334C25.3638 0.046453 29.3849 -1.18662 31.0137 1.41428L45.8221 25.0605C46.3908 25.9686 47.4006 26.5044 48.4714 26.4663L76.3542 25.4733C79.4211 25.3641 80.6541 29.3852 78.0532 31.014L54.407 45.8224C53.4989 46.3911 52.9631 47.4009 53.0012 48.4717L53.9942 76.3545C54.1034 79.4214 50.0824 80.6544 48.4535 78.0535L33.6451 54.4073C33.0764 53.4992 32.0666 52.9634 30.9958 53.0015L3.11304 53.9945C0.0461547 54.1037 -1.18691 50.0827 1.41399 48.4538L25.0602 33.6454C25.9683 33.0767 26.5041 32.0669 26.466 30.9961L25.473 3.11334Z" fill="#E8EDC4"/>
</svg>
