<svg width="322" height="234" viewBox="0 0 322 234" fill="none" xmlns="http://www.w3.org/2000/svg">
<path d="M0.657635 109.388L253.98 18.8328C270.987 12.7535 286.557 30.8034 278.049 46.7342C273.967 54.3786 275.345 63.7915 281.447 69.945L294.49 83.0969C309.625 98.3591 311.802 122.214 299.679 139.964L277.15 172.951C273.511 178.279 273.3 185.235 276.608 190.774C284.772 204.443 270.818 220.629 256.095 214.567L0.657635 109.388Z" fill="#F5D3CF"/>
<path d="M139.285 101.116V131.401H133.76V105.822H111.66V131.401H106.135V101.116H139.285ZM144.183 101.116H149.503H144.183ZM170.458 126.285H186.173V101.116H191.494V131.401H144.183V101.116H149.503V126.285H165.178V101.116H170.458V126.285ZM201.74 101.116V125.139L225.886 101.116H231.207V131.401H225.886V107.378L201.74 131.401H196.42V101.116H201.74ZM246.052 114.99L266.269 131.401H258.125L241.427 117.364V131.401H236.107V101.116H241.427V112.821L257.347 101.116H265.614L246.052 114.99Z" fill="#E4B3AD"/>
</svg>
