<svg width="3342" height="295" viewBox="0 0 3342 295" fill="none" xmlns="http://www.w3.org/2000/svg">
<rect width="557" height="295" fill="white"/>
<path d="M87.2 123.93C87.2 121.71 87.79 119.71 88.97 117.93C90.17 116.15 91.8 114.76 93.86 113.76C95.92 112.74 98.21 112.23 100.73 112.23C103.75 112.23 106.4 112.98 108.68 114.48C110.98 115.98 112.64 118.11 113.66 120.87L109.58 120.93C109.16 119.81 108.45 118.85 107.45 118.05C106.45 117.25 105.34 116.65 104.12 116.25C102.92 115.83 101.8 115.62 100.76 115.62C99.2 115.62 97.67 115.95 96.17 116.61C94.69 117.25 93.47 118.2 92.51 119.46C91.57 120.72 91.1 122.21 91.1 123.93C91.1 125.69 91.54 127.19 92.42 128.43C93.3 129.67 94.47 130.61 95.93 131.25C97.41 131.89 99.02 132.21 100.76 132.21C101.78 132.21 102.85 132.02 103.97 131.64C105.09 131.24 106.14 130.65 107.12 129.87C108.1 129.09 108.88 128.14 109.46 127.02H113.69C112.57 129.82 110.88 131.95 108.62 133.41C106.38 134.87 103.75 135.6 100.73 135.6C98.23 135.6 95.94 135.09 93.86 134.07C91.8 133.05 90.17 131.65 88.97 129.87C87.79 128.09 87.2 126.11 87.2 123.93ZM114.743 116.16V112.8H139.373L114.743 116.16ZM139.373 112.8V116.25H129.083V135H125.183V116.25H114.743V112.8H139.373ZM167.367 112.8L156.207 131.64C155.647 132.74 154.577 133.59 152.997 134.19C151.437 134.79 149.647 135.09 147.627 135.09C147.227 135.09 146.917 135.08 146.697 135.06V131.67C149.037 131.67 150.207 131.27 150.207 130.47C150.207 130.23 150.117 129.98 149.937 129.72L140.877 112.8H145.107L153.627 128.73L163.137 112.8H167.367ZM187.689 131.4H190.659V137.88H186.879V135.03L167.469 135V137.88H163.689V131.4H165.189C167.029 128.64 168.379 125.77 169.239 122.79C170.119 119.81 170.559 116.48 170.559 112.8H187.659L187.689 131.4ZM174.159 116.1C173.699 121.9 172.059 127 169.239 131.4H183.939V116.13L174.159 116.1ZM213.125 125.1H197.345V131.67L215.645 131.55V135H193.445V112.8H215.645L215.675 116.25H197.345V121.65H213.125V125.1ZM222.716 121.23H238.616V112.8H242.516V135H238.616V124.83H222.716V135H218.816V112.8H222.716V121.23ZM245.67 116.16V112.8H270.3L245.67 116.16ZM270.3 112.8V116.25H260.01V135H256.11V116.25H245.67V112.8H270.3Z" fill="#F5D3CF"/>
<path d="M272.854 119.85H277.324V124.05H272.854V119.85ZM272.854 130.8H277.324V135H272.854V130.8ZM108.47 164.36C110.15 164.7 111.42 165.29 112.28 166.13C113.14 166.95 113.57 168.13 113.57 169.67V169.79C113.57 171.65 113.13 173.02 112.25 173.9C111.39 174.78 110.23 175.35 108.77 175.61C107.33 175.85 105.31 175.99 102.71 176.03H102.65H101.21L87.8 176V153.8H104.09C106.41 153.82 108.26 154.3 109.64 155.24C111.02 156.18 111.71 157.51 111.71 159.23V159.35C111.71 160.65 111.44 161.71 110.9 162.53C110.36 163.35 109.55 163.96 108.47 164.36ZM107.87 159.86C107.87 158.94 107.67 158.27 107.27 157.85C106.89 157.43 106.39 157.17 105.77 157.07C105.15 156.97 104.26 156.92 103.1 156.92H103.04H91.67V162.8C92.59 162.82 93.5 162.83 94.4 162.83C95.3 162.83 96.15 162.84 96.95 162.86C98.83 162.86 99.83 162.87 99.95 162.89H103.1C104.32 162.89 105.21 162.85 105.77 162.77C106.35 162.69 106.84 162.44 107.24 162.02C107.66 161.58 107.87 160.86 107.87 159.86ZM91.67 163.19H91.73L91.67 163.16V163.19ZM104.06 172.79C105.44 172.79 106.47 172.74 107.15 172.64C107.83 172.52 108.37 172.22 108.77 171.74C109.19 171.24 109.4 170.44 109.4 169.34C109.4 168.28 109.19 167.52 108.77 167.06C108.37 166.58 107.83 166.29 107.15 166.19C106.47 166.07 105.44 166.01 104.06 166.01H104.03H91.67V172.73C96.69 172.73 100.32 172.75 102.56 172.79H104.06ZM136.25 166.1H120.47V172.67L138.77 172.55V176H116.57V153.8H138.77L138.8 157.25H120.47V162.65H136.25V166.1ZM157.121 153.8C158.981 153.8 160.621 154.11 162.041 154.73C163.481 155.35 164.591 156.22 165.371 157.34C166.171 158.44 166.571 159.72 166.571 161.18V161.3C166.571 163.76 165.881 165.63 164.501 166.91C163.121 168.17 161.031 168.8 158.231 168.8H145.871V176H141.941V153.8H157.121ZM156.911 165.47C158.111 165.47 159.091 165.4 159.851 165.26C160.631 165.12 161.291 164.76 161.831 164.18C162.391 163.58 162.671 162.65 162.671 161.39C162.671 160.07 162.391 159.1 161.831 158.48C161.291 157.84 160.641 157.45 159.881 157.31C159.121 157.17 158.131 157.1 156.911 157.1H155.621C155.041 157.1 154.041 157.11 152.621 157.13C151.221 157.13 148.961 157.13 145.841 157.13L145.871 165.47H156.881H156.911ZM182.258 153.32C184.798 153.32 187.078 153.83 189.098 154.85C191.138 155.85 192.728 157.24 193.868 159.02C195.028 160.78 195.608 162.77 195.608 164.99C195.608 167.19 195.028 169.17 193.868 170.93C192.728 172.69 191.148 174.08 189.128 175.1C187.108 176.1 184.828 176.6 182.288 176.6C179.828 176.6 177.568 176.1 175.508 175.1C173.448 174.08 171.818 172.69 170.618 170.93C169.418 169.15 168.818 167.17 168.818 164.99C168.818 162.79 169.418 160.8 170.618 159.02C171.818 157.24 173.438 155.85 175.478 154.85C177.538 153.83 179.798 153.32 182.258 153.32ZM182.258 173.21C183.878 173.21 185.408 172.89 186.848 172.25C188.288 171.61 189.448 170.67 190.328 169.43C191.208 168.19 191.648 166.71 191.648 164.99C191.648 163.31 191.198 161.84 190.298 160.58C189.418 159.32 188.248 158.36 186.788 157.7C185.328 157.04 183.788 156.71 182.168 156.71C180.408 156.71 178.808 157.04 177.368 157.7C175.948 158.36 174.828 159.32 174.008 160.58C173.188 161.82 172.778 163.29 172.778 164.99C172.778 166.73 173.208 168.22 174.068 169.46C174.948 170.7 176.108 171.64 177.548 172.28C178.988 172.9 180.558 173.21 182.258 173.21ZM202.354 162.23H218.254V153.8H222.154V176H218.254V165.83H202.354V176H198.454V153.8H202.354V162.23ZM229.659 153.8V171.41L247.359 153.8H251.259V176H247.359V158.39L229.659 176H225.759V153.8H229.659ZM262.141 163.97L276.961 176H270.991L258.751 165.71V176H254.851V153.8H258.751V162.38L270.421 153.8H276.481L262.141 163.97ZM305.96 176H301.76L298.97 170.84H284.24L281.45 176H277.25L289.28 153.8H293.93L305.96 176ZM291.62 157.25L286.22 167.18H296.99L291.62 157.25ZM317.649 164.93C317.649 162.71 318.239 160.71 319.419 158.93C320.619 157.15 322.249 155.76 324.309 154.76C326.369 153.74 328.659 153.23 331.179 153.23C334.199 153.23 336.849 153.98 339.129 155.48C341.429 156.98 343.089 159.11 344.109 161.87L340.029 161.93C339.609 160.81 338.899 159.85 337.899 159.05C336.899 158.25 335.789 157.65 334.569 157.25C333.369 156.83 332.249 156.62 331.209 156.62C329.649 156.62 328.119 156.95 326.619 157.61C325.139 158.25 323.919 159.2 322.959 160.46C322.019 161.72 321.549 163.21 321.549 164.93C321.549 166.69 321.989 168.19 322.869 169.43C323.749 170.67 324.919 171.61 326.379 172.25C327.859 172.89 329.469 173.21 331.209 173.21C332.229 173.21 333.299 173.02 334.419 172.64C335.539 172.24 336.589 171.65 337.569 170.87C338.549 170.09 339.329 169.14 339.909 168.02H344.139C343.019 170.82 341.329 172.95 339.069 174.41C336.829 175.87 334.199 176.6 331.179 176.6C328.679 176.6 326.389 176.09 324.309 175.07C322.249 174.05 320.619 172.65 319.419 170.87C318.239 169.09 317.649 167.11 317.649 164.93ZM351.036 153.8V171.41L368.736 153.8H372.636V176H368.736V158.39L351.036 176H347.136V153.8H351.036ZM399.358 153.8V176H395.458V157.25H384.898C384.498 160.11 384.028 162.69 383.488 164.99C382.968 167.29 382.248 169.51 381.328 171.65C380.708 172.91 379.908 173.92 378.928 174.68C377.948 175.42 376.848 175.86 375.628 176V172.1C376.768 172.1 377.698 171.22 378.418 169.46C379.978 164.82 380.968 159.6 381.388 153.8H399.358ZM406.846 153.8V171.41L424.546 153.8H428.446V176H424.546V158.39L406.846 176H402.946V153.8H406.846ZM435.938 162.23H451.838V153.8H455.738V176H451.838V165.83H435.938V176H432.038V153.8H435.938V162.23ZM486.253 176H482.053L479.263 170.84H464.533L461.743 176H457.543L469.573 153.8H474.223L486.253 176ZM471.913 157.25L466.513 167.18H477.283L471.913 157.25Z" fill="black"/>
<rect width="557" height="295" transform="translate(557)" fill="white"/>
<rect x="515" y="10" width="84" height="275" fill="white"/>
<path d="M624.09 122.97L638.91 135H632.94L620.7 124.71V135H616.8V112.8H620.7V121.38L632.37 112.8H638.43L624.09 122.97ZM665.839 112.8L654.679 131.64C654.119 132.74 653.049 133.59 651.469 134.19C649.909 134.79 648.119 135.09 646.099 135.09C645.699 135.09 645.389 135.08 645.169 135.06V131.67C647.509 131.67 648.679 131.27 648.679 130.47C648.679 130.23 648.589 129.98 648.409 129.72L639.349 112.8H643.579L652.099 128.73L661.609 112.8H665.839ZM682.957 112.8C684.817 112.8 686.457 113.11 687.877 113.73C689.317 114.35 690.427 115.22 691.207 116.34C692.007 117.44 692.407 118.72 692.407 120.18V120.3C692.407 122.76 691.717 124.63 690.337 125.91C688.957 127.17 686.867 127.8 684.067 127.8H671.707V135H667.777V112.8H682.957ZM682.747 124.47C683.947 124.47 684.927 124.4 685.687 124.26C686.467 124.12 687.127 123.76 687.667 123.18C688.227 122.58 688.507 121.65 688.507 120.39C688.507 119.07 688.227 118.1 687.667 117.48C687.127 116.84 686.477 116.45 685.717 116.31C684.957 116.17 683.967 116.1 682.747 116.1H681.457C680.877 116.1 679.877 116.11 678.457 116.13C677.057 116.13 674.797 116.13 671.677 116.13L671.707 124.47H682.717H682.747ZM717.802 135H713.602L710.812 129.84H696.082L693.292 135H689.092L701.122 112.8H705.772L717.802 135ZM703.462 116.25L698.062 126.18H708.832L703.462 116.25ZM711.36 116.16V112.8H735.99L711.36 116.16ZM735.99 112.8V116.25H725.7V135H721.8V116.25H711.36V112.8H735.99ZM749.138 112.32C751.678 112.32 753.958 112.83 755.978 113.85C758.018 114.85 759.608 116.24 760.748 118.02C761.908 119.78 762.488 121.77 762.488 123.99C762.488 126.19 761.908 128.17 760.748 129.93C759.608 131.69 758.028 133.08 756.008 134.1C753.988 135.1 751.708 135.6 749.168 135.6C746.708 135.6 744.448 135.1 742.388 134.1C740.328 133.08 738.698 131.69 737.498 129.93C736.298 128.15 735.698 126.17 735.698 123.99C735.698 121.79 736.298 119.8 737.498 118.02C738.698 116.24 740.318 114.85 742.358 113.85C744.418 112.83 746.678 112.32 749.138 112.32ZM749.138 132.21C750.758 132.21 752.288 131.89 753.728 131.25C755.168 130.61 756.328 129.67 757.208 128.43C758.088 127.19 758.528 125.71 758.528 123.99C758.528 122.31 758.078 120.84 757.178 119.58C756.298 118.32 755.128 117.36 753.668 116.7C752.208 116.04 750.668 115.71 749.048 115.71C747.288 115.71 745.688 116.04 744.248 116.7C742.828 117.36 741.708 118.32 740.888 119.58C740.068 120.82 739.658 122.29 739.658 123.99C739.658 125.73 740.088 127.22 740.948 128.46C741.828 129.7 742.988 130.64 744.428 131.28C745.868 131.9 747.438 132.21 749.138 132.21ZM780.515 112.8C782.375 112.8 784.015 113.11 785.435 113.73C786.875 114.35 787.985 115.22 788.765 116.34C789.565 117.44 789.965 118.72 789.965 120.18V120.3C789.965 122.76 789.275 124.63 787.895 125.91C786.515 127.17 784.425 127.8 781.625 127.8H769.265V135H765.335V112.8H780.515ZM780.305 124.47C781.505 124.47 782.485 124.4 783.245 124.26C784.025 124.12 784.685 123.76 785.225 123.18C785.785 122.58 786.065 121.65 786.065 120.39C786.065 119.07 785.785 118.1 785.225 117.48C784.685 116.84 784.035 116.45 783.275 116.31C782.515 116.17 781.525 116.1 780.305 116.1H779.015C778.435 116.1 777.435 116.11 776.015 116.13C774.615 116.13 772.355 116.13 769.235 116.13L769.265 124.47H780.275H780.305Z" fill="#B8CEDD"/>
<path d="M792.362 119.85H796.832V124.05H792.362V119.85ZM792.362 130.8H796.832V135H792.362V130.8ZM620.7 162.23H636.6V153.8H640.5V176H636.6V165.83H620.7V176H616.8V153.8H620.7V162.23ZM648.005 153.8V171.41L665.705 153.8H669.605V176H665.705V158.39L648.005 176H644.105V153.8H648.005ZM680.486 163.97L695.306 176H689.336L677.096 165.71V176H673.196V153.8H677.096V162.38L688.766 153.8H694.826L680.486 163.97ZM705.896 153.32C708.436 153.32 710.716 153.83 712.736 154.85C714.776 155.85 716.366 157.24 717.506 159.02C718.666 160.78 719.246 162.77 719.246 164.99C719.246 167.19 718.666 169.17 717.506 170.93C716.366 172.69 714.786 174.08 712.766 175.1C710.746 176.1 708.466 176.6 705.926 176.6C703.466 176.6 701.206 176.1 699.146 175.1C697.086 174.08 695.456 172.69 694.256 170.93C693.056 169.15 692.456 167.17 692.456 164.99C692.456 162.79 693.056 160.8 694.256 159.02C695.456 157.24 697.076 155.85 699.116 154.85C701.176 153.83 703.436 153.32 705.896 153.32ZM705.896 173.21C707.516 173.21 709.046 172.89 710.486 172.25C711.926 171.61 713.086 170.67 713.966 169.43C714.846 168.19 715.286 166.71 715.286 164.99C715.286 163.31 714.836 161.84 713.936 160.58C713.056 159.32 711.886 158.36 710.426 157.7C708.966 157.04 707.426 156.71 705.806 156.71C704.046 156.71 702.446 157.04 701.006 157.7C699.586 158.36 698.466 159.32 697.646 160.58C696.826 161.82 696.416 163.29 696.416 164.99C696.416 166.73 696.846 168.22 697.706 169.46C698.586 170.7 699.746 171.64 701.186 172.28C702.626 172.9 704.196 173.21 705.896 173.21ZM743.436 153.8V176H739.536V157.25H728.976C728.576 160.11 728.106 162.69 727.566 164.99C727.046 167.29 726.326 169.51 725.406 171.65C724.786 172.91 723.986 173.92 723.006 174.68C722.026 175.42 720.926 175.86 719.706 176V172.1C720.846 172.1 721.776 171.22 722.496 169.46C724.056 164.82 725.046 159.6 725.466 153.8H743.436ZM773.935 176H769.735L766.945 170.84H752.215L749.425 176H745.225L757.255 153.8H761.905L773.935 176ZM759.595 157.25L754.195 167.18H764.965L759.595 157.25ZM788.426 154.25C786.186 154.25 784.376 153.76 782.996 152.78C781.636 151.8 780.956 150.3 780.956 148.28H783.836C783.816 149.4 784.206 150.3 785.006 150.98C785.826 151.64 786.926 151.97 788.306 151.97C789.706 151.97 790.826 151.64 791.666 150.98C792.506 150.3 792.926 149.4 792.926 148.28H795.806C795.806 150.26 795.116 151.75 793.736 152.75C792.376 153.75 790.606 154.25 788.426 154.25ZM779.636 171.41L797.336 153.8H801.236V176H797.336V158.39L779.636 176H775.736V153.8H779.636V171.41ZM834.966 153.8H838.866V172.25H841.296V179.9H837.246V176H815.316V153.8H819.216V172.25H834.966V153.8ZM863.173 164.36C864.853 164.7 866.123 165.29 866.983 166.13C867.843 166.95 868.273 168.13 868.273 169.67V169.79C868.273 171.65 867.833 173.02 866.953 173.9C866.093 174.78 864.933 175.35 863.473 175.61C862.033 175.85 860.013 175.99 857.413 176.03H857.353H855.913L842.503 176V153.8H858.793C861.113 153.82 862.963 154.3 864.343 155.24C865.723 156.18 866.413 157.51 866.413 159.23V159.35C866.413 160.65 866.143 161.71 865.603 162.53C865.063 163.35 864.253 163.96 863.173 164.36ZM862.573 159.86C862.573 158.94 862.373 158.27 861.973 157.85C861.593 157.43 861.093 157.17 860.473 157.07C859.853 156.97 858.963 156.92 857.803 156.92H857.743H846.373V162.8C847.293 162.82 848.203 162.83 849.103 162.83C850.003 162.83 850.853 162.84 851.653 162.86C853.533 162.86 854.533 162.87 854.653 162.89H857.803C859.023 162.89 859.913 162.85 860.473 162.77C861.053 162.69 861.543 162.44 861.943 162.02C862.363 161.58 862.573 160.86 862.573 159.86ZM846.373 163.19H846.433L846.373 163.16V163.19ZM858.763 172.79C860.143 172.79 861.173 172.74 861.853 172.64C862.533 172.52 863.073 172.22 863.473 171.74C863.893 171.24 864.103 170.44 864.103 169.34C864.103 168.28 863.893 167.52 863.473 167.06C863.073 166.58 862.533 166.29 861.853 166.19C861.173 166.07 860.143 166.01 858.763 166.01H858.733H846.373V172.73C851.393 172.73 855.023 172.75 857.263 172.79H858.763ZM890.953 166.1H875.173V172.67L893.473 172.55V176H871.273V153.8H893.473L893.503 157.25H875.173V162.65H890.953V166.1ZM896.194 157.16V153.8H920.824L896.194 157.16ZM920.824 153.8V157.25H910.534V176H906.634V157.25H896.194V153.8H920.824ZM927.878 162.23H943.778V153.8H947.678V176H943.778V165.83H927.878V176H923.978V153.8H927.878V162.23ZM955.182 153.8V171.41L972.882 153.8H976.782V176H972.882V158.39L955.182 176H951.282V153.8H955.182ZM987.664 163.97L1002.48 176H996.514L984.274 165.71V176H980.374V153.8H984.274V162.38L995.944 153.8H1002L987.664 163.97ZM1013.07 153.32C1015.61 153.32 1017.89 153.83 1019.91 154.85C1021.95 155.85 1023.54 157.24 1024.68 159.02C1025.84 160.78 1026.42 162.77 1026.42 164.99C1026.42 167.19 1025.84 169.17 1024.68 170.93C1023.54 172.69 1021.96 174.08 1019.94 175.1C1017.92 176.1 1015.64 176.6 1013.1 176.6C1010.64 176.6 1008.38 176.1 1006.32 175.1C1004.26 174.08 1002.63 172.69 1001.43 170.93C1000.23 169.15 999.634 167.17 999.634 164.99C999.634 162.79 1000.23 160.8 1001.43 159.02C1002.63 157.24 1004.25 155.85 1006.29 154.85C1008.35 153.83 1010.61 153.32 1013.07 153.32ZM1013.07 173.21C1014.69 173.21 1016.22 172.89 1017.66 172.25C1019.1 171.61 1020.26 170.67 1021.14 169.43C1022.02 168.19 1022.46 166.71 1022.46 164.99C1022.46 163.31 1022.01 161.84 1021.11 160.58C1020.23 159.32 1019.06 158.36 1017.6 157.7C1016.14 157.04 1014.6 156.71 1012.98 156.71C1011.22 156.71 1009.62 157.04 1008.18 157.7C1006.76 158.36 1005.64 159.32 1004.82 160.58C1004 161.82 1003.59 163.29 1003.59 164.99C1003.59 166.73 1004.02 168.22 1004.88 169.46C1005.76 170.7 1006.92 171.64 1008.36 172.28C1009.8 172.9 1011.37 173.21 1013.07 173.21ZM1049.94 164.36C1051.62 164.7 1052.89 165.29 1053.75 166.13C1054.61 166.95 1055.04 168.13 1055.04 169.67V169.79C1055.04 171.65 1054.6 173.02 1053.72 173.9C1052.86 174.78 1051.7 175.35 1050.24 175.61C1048.8 175.85 1046.78 175.99 1044.18 176.03H1044.12H1042.68L1029.27 176V153.8H1045.56C1047.88 153.82 1049.73 154.3 1051.11 155.24C1052.49 156.18 1053.18 157.51 1053.18 159.23V159.35C1053.18 160.65 1052.91 161.71 1052.37 162.53C1051.83 163.35 1051.02 163.96 1049.94 164.36ZM1049.34 159.86C1049.34 158.94 1049.14 158.27 1048.74 157.85C1048.36 157.43 1047.86 157.17 1047.24 157.07C1046.62 156.97 1045.73 156.92 1044.57 156.92H1044.51H1033.14V162.8C1034.06 162.82 1034.97 162.83 1035.87 162.83C1036.77 162.83 1037.62 162.84 1038.42 162.86C1040.3 162.86 1041.3 162.87 1041.42 162.89H1044.57C1045.79 162.89 1046.68 162.85 1047.24 162.77C1047.82 162.69 1048.31 162.44 1048.71 162.02C1049.13 161.58 1049.34 160.86 1049.34 159.86ZM1033.14 163.19H1033.2L1033.14 163.16V163.19ZM1045.53 172.79C1046.91 172.79 1047.94 172.74 1048.62 172.64C1049.3 172.52 1049.84 172.22 1050.24 171.74C1050.66 171.24 1050.87 170.44 1050.87 169.34C1050.87 168.28 1050.66 167.52 1050.24 167.06C1049.84 166.58 1049.3 166.29 1048.62 166.19C1047.94 166.07 1046.91 166.01 1045.53 166.01H1045.5H1033.14V172.73C1038.16 172.73 1041.79 172.75 1044.03 172.79H1045.53Z" fill="black"/>
<rect width="557" height="295" transform="translate(1114)" fill="white"/>
<rect x="1056" y="10" width="84" height="275" fill="white"/>
<path d="M1328.83 112.8V116.25H1314.7V135H1310.8V112.8H1328.83ZM1347.02 112.8C1348.88 112.8 1350.52 113.11 1351.94 113.73C1353.38 114.35 1354.49 115.22 1355.27 116.34C1356.07 117.44 1356.47 118.72 1356.47 120.18V120.3C1356.47 122.76 1355.78 124.63 1354.4 125.91C1353.02 127.17 1350.93 127.8 1348.13 127.8H1335.77V135H1331.84V112.8H1347.02ZM1346.81 124.47C1348.01 124.47 1348.99 124.4 1349.75 124.26C1350.53 124.12 1351.19 123.76 1351.73 123.18C1352.29 122.58 1352.57 121.65 1352.57 120.39C1352.57 119.07 1352.29 118.1 1351.73 117.48C1351.19 116.84 1350.54 116.45 1349.78 116.31C1349.02 116.17 1348.03 116.1 1346.81 116.1H1345.52C1344.94 116.1 1343.94 116.11 1342.52 116.13C1341.12 116.13 1338.86 116.13 1335.74 116.13L1335.77 124.47H1346.78H1346.81ZM1384.3 112.8L1373.14 131.64C1372.58 132.74 1371.51 133.59 1369.93 134.19C1368.37 134.79 1366.58 135.09 1364.56 135.09C1364.16 135.09 1363.85 135.08 1363.63 135.06V131.67C1365.97 131.67 1367.14 131.27 1367.14 130.47C1367.14 130.23 1367.05 129.98 1366.87 129.72L1357.81 112.8H1362.04L1370.56 128.73L1380.07 112.8H1384.3ZM1410.54 112.8V135H1406.49V116.25H1390.29V135H1386.24V112.8H1410.54ZM1438.43 112.8V135H1434.38V116.25H1418.18V135H1414.13V112.8H1438.43ZM1468.93 135H1464.73L1461.94 129.84H1447.21L1444.42 135H1440.22L1452.25 112.8H1456.9L1468.93 135ZM1454.59 116.25L1449.19 126.18H1459.96L1454.59 116.25Z" fill="#E7EBC9"/>
<path d="M1470.13 119.85H1474.6V124.05H1470.13V119.85ZM1470.13 130.8H1474.6V135H1470.13V130.8ZM1321.48 161.6C1325.08 161.6 1327.8 161.88 1329.64 162.44C1331.48 163 1332.69 163.76 1333.27 164.72C1333.87 165.68 1334.17 166.92 1334.17 168.44V168.53C1334.17 169.77 1333.94 170.92 1333.48 171.98C1333.02 173.04 1331.92 173.99 1330.18 174.83C1328.46 175.67 1325.87 176.09 1322.41 176.09H1310.8V153.89H1332.73V157.34H1314.7V161.6H1321.48ZM1323.46 172.76C1325.86 172.76 1327.59 172.41 1328.65 171.71C1329.73 170.99 1330.27 169.92 1330.27 168.5C1330.27 167.56 1330.04 166.83 1329.58 166.31C1329.14 165.79 1328.43 165.43 1327.45 165.23C1326.49 165.01 1325.16 164.9 1323.46 164.9H1323.43H1314.7V172.7C1319.12 172.7 1321.81 172.72 1322.77 172.76H1323.46ZM1363.48 172.61V176H1336.42V174.5C1336.42 171.86 1336.82 169.86 1337.62 168.5C1338.44 167.14 1339.51 166.2 1340.83 165.68C1342.15 165.16 1344 164.71 1346.38 164.33C1346.96 164.23 1347.66 164.13 1348.48 164.03C1349.32 163.93 1349.97 163.85 1350.43 163.79C1352.41 163.57 1353.96 163.36 1355.08 163.16C1356.2 162.94 1357.14 162.62 1357.9 162.2C1358.66 161.76 1359.04 161.17 1359.04 160.43C1359.04 158.99 1358.12 157.95 1356.28 157.31C1354.44 156.65 1352.19 156.33 1349.53 156.35C1346.97 156.33 1344.79 156.71 1342.99 157.49C1341.21 158.27 1340.32 159.5 1340.32 161.18L1336.42 161.15C1336.42 159.17 1337.14 157.58 1338.58 156.38C1340.02 155.18 1341.73 154.34 1343.71 153.86C1345.71 153.38 1347.63 153.14 1349.47 153.14C1352.89 153.14 1355.99 153.63 1358.77 154.61C1361.55 155.59 1362.94 157.52 1362.94 160.4C1362.94 161.98 1362.22 163.23 1360.78 164.15C1359.34 165.07 1357.7 165.72 1355.86 166.1C1354.04 166.46 1351.92 166.77 1349.5 167.03C1348.32 167.13 1347.5 167.23 1347.04 167.33C1344.46 167.55 1342.69 168.19 1341.73 169.25C1340.79 170.31 1340.32 171.43 1340.32 172.61H1363.48ZM1389.72 168.23H1385.82H1389.72ZM1389.72 168.26C1389.64 171.44 1388.41 173.63 1386.03 174.83C1383.65 176.03 1380.92 176.63 1377.84 176.63C1376.2 176.63 1374.48 176.38 1372.68 175.88C1370.9 175.38 1369.37 174.53 1368.09 173.33C1366.81 172.13 1366.17 170.56 1366.17 168.62L1370.07 168.59C1370.07 170.15 1370.79 171.33 1372.23 172.13C1373.69 172.93 1375.46 173.38 1377.54 173.48C1379.84 173.54 1381.79 173.15 1383.39 172.31C1385.01 171.47 1385.82 170.12 1385.82 168.26C1385.8 166.6 1385.16 165.31 1383.9 164.39C1382.64 163.47 1380.59 163.01 1377.75 163.01C1376.63 163.01 1375.46 163.16 1374.24 163.46C1373.04 163.76 1372.03 164.21 1371.21 164.81C1370.39 165.39 1369.98 166.09 1369.98 166.91V167.09L1366.26 167.21V153.8H1388.67V156.74H1369.98V162.59C1370.92 161.71 1372.17 161.11 1373.73 160.79C1375.31 160.45 1377.15 160.28 1379.25 160.28C1381.29 160.28 1383.1 160.6 1384.68 161.24C1386.26 161.86 1387.49 162.77 1388.37 163.97C1389.27 165.17 1389.72 166.59 1389.72 168.23V168.26ZM1415.9 172.4H1418.87V178.88H1415.09V176.03L1395.68 176V178.88H1391.9V172.4H1393.4C1395.24 169.64 1396.59 166.77 1397.45 163.79C1398.33 160.81 1398.77 157.48 1398.77 153.8H1415.87L1415.9 172.4ZM1402.37 157.1C1401.91 162.9 1400.27 168 1397.45 172.4H1412.15V157.13L1402.37 157.1ZM1448.72 168.65C1448.7 171.43 1447.44 173.46 1444.94 174.74C1442.44 176.02 1439.18 176.66 1435.16 176.66C1432.24 176.66 1429.72 176.27 1427.6 175.49C1425.5 174.71 1423.9 173.62 1422.8 172.22C1421.7 170.82 1421.15 169.19 1421.15 167.33H1425.02C1425.02 169.39 1426 170.91 1427.96 171.89C1429.94 172.85 1432.34 173.33 1435.16 173.33C1437.8 173.35 1440.04 172.98 1441.88 172.22C1443.74 171.46 1444.68 170.26 1444.7 168.62C1444.7 167.98 1444.55 167.5 1444.25 167.18C1443.95 166.84 1443.24 166.59 1442.12 166.43C1441 166.25 1439.22 166.16 1436.78 166.16H1431.23V162.74H1436.84H1438.31C1439.55 162.74 1440.58 162.69 1441.4 162.59C1442.22 162.47 1442.89 162.21 1443.41 161.81C1443.95 161.41 1444.22 160.81 1444.22 160.01C1444.22 158.85 1443.34 157.98 1441.58 157.4C1439.82 156.82 1437.68 156.51 1435.16 156.47C1432.34 156.43 1429.94 156.74 1427.96 157.4C1426 158.04 1425.02 159.09 1425.02 160.55H1421.15C1421.15 157.67 1422.6 155.72 1425.5 154.7C1428.42 153.66 1431.64 153.14 1435.16 153.14C1437.3 153.14 1439.29 153.28 1441.13 153.56C1442.99 153.82 1444.62 154.44 1446.02 155.42C1447.42 156.4 1448.12 157.85 1448.12 159.77C1448.12 161.91 1447.34 163.41 1445.78 164.27C1447.72 165.09 1448.7 166.53 1448.72 168.59V168.62V168.65ZM1460.18 153.8V176H1456.28V160.31H1451.27V157.58C1453.07 157.58 1454.4 157.35 1455.26 156.89C1456.14 156.43 1456.67 155.94 1456.85 155.42C1457.05 154.88 1457.15 154.34 1457.15 153.8H1460.18ZM1472.25 153.8V176H1468.35V160.31H1463.34V157.58C1465.14 157.58 1466.47 157.35 1467.33 156.89C1468.21 156.43 1468.74 155.94 1468.92 155.42C1469.12 154.88 1469.22 154.34 1469.22 153.8H1472.25Z" fill="black"/>
<rect width="557" height="295" transform="translate(1671)" fill="white"/>
<path d="M1758.2 123.93C1758.2 121.71 1758.79 119.71 1759.97 117.93C1761.17 116.15 1762.8 114.76 1764.86 113.76C1766.92 112.74 1769.21 112.23 1771.73 112.23C1774.75 112.23 1777.4 112.98 1779.68 114.48C1781.98 115.98 1783.64 118.11 1784.66 120.87L1780.58 120.93C1780.16 119.81 1779.45 118.85 1778.45 118.05C1777.45 117.25 1776.34 116.65 1775.12 116.25C1773.92 115.83 1772.8 115.62 1771.76 115.62C1770.2 115.62 1768.67 115.95 1767.17 116.61C1765.69 117.25 1764.47 118.2 1763.51 119.46C1762.57 120.72 1762.1 122.21 1762.1 123.93C1762.1 125.69 1762.54 127.19 1763.42 128.43C1764.3 129.67 1765.47 130.61 1766.93 131.25C1768.41 131.89 1770.02 132.21 1771.76 132.21C1772.78 132.21 1773.85 132.02 1774.97 131.64C1776.09 131.24 1777.14 130.65 1778.12 129.87C1779.1 129.09 1779.88 128.14 1780.46 127.02H1784.69C1783.57 129.82 1781.88 131.95 1779.62 133.41C1777.38 134.87 1774.75 135.6 1771.73 135.6C1769.23 135.6 1766.94 135.09 1764.86 134.07C1762.8 133.05 1761.17 131.65 1759.97 129.87C1758.79 128.09 1758.2 126.11 1758.2 123.93ZM1785.74 116.16V112.8H1810.37L1785.74 116.16ZM1810.37 112.8V116.25H1800.08V135H1796.18V116.25H1785.74V112.8H1810.37ZM1838.37 112.8L1827.21 131.64C1826.65 132.74 1825.58 133.59 1824 134.19C1822.44 134.79 1820.65 135.09 1818.63 135.09C1818.23 135.09 1817.92 135.08 1817.7 135.06V131.67C1820.04 131.67 1821.21 131.27 1821.21 130.47C1821.21 130.23 1821.12 129.98 1820.94 129.72L1811.88 112.8H1816.11L1824.63 128.73L1834.14 112.8H1838.37ZM1858.69 131.4H1861.66V137.88H1857.88V135.03L1838.47 135V137.88H1834.69V131.4H1836.19C1838.03 128.64 1839.38 125.77 1840.24 122.79C1841.12 119.81 1841.56 116.48 1841.56 112.8H1858.66L1858.69 131.4ZM1845.16 116.1C1844.7 121.9 1843.06 127 1840.24 131.4H1854.94V116.13L1845.16 116.1ZM1884.12 125.1H1868.34V131.67L1886.64 131.55V135H1864.44V112.8H1886.64L1886.67 116.25H1868.34V121.65H1884.12V125.1ZM1893.72 121.23H1909.62V112.8H1913.52V135H1909.62V124.83H1893.72V135H1889.82V112.8H1893.72V121.23ZM1916.67 116.16V112.8H1941.3L1916.67 116.16ZM1941.3 112.8V116.25H1931.01V135H1927.11V116.25H1916.67V112.8H1941.3Z" fill="#F5D3CF"/>
<path d="M1943.85 119.85H1948.32V124.05H1943.85V119.85ZM1943.85 130.8H1948.32V135H1943.85V130.8ZM1779.47 164.36C1781.15 164.7 1782.42 165.29 1783.28 166.13C1784.14 166.95 1784.57 168.13 1784.57 169.67V169.79C1784.57 171.65 1784.13 173.02 1783.25 173.9C1782.39 174.78 1781.23 175.35 1779.77 175.61C1778.33 175.85 1776.31 175.99 1773.71 176.03H1773.65H1772.21L1758.8 176V153.8H1775.09C1777.41 153.82 1779.26 154.3 1780.64 155.24C1782.02 156.18 1782.71 157.51 1782.71 159.23V159.35C1782.71 160.65 1782.44 161.71 1781.9 162.53C1781.36 163.35 1780.55 163.96 1779.47 164.36ZM1778.87 159.86C1778.87 158.94 1778.67 158.27 1778.27 157.85C1777.89 157.43 1777.39 157.17 1776.77 157.07C1776.15 156.97 1775.26 156.92 1774.1 156.92H1774.04H1762.67V162.8C1763.59 162.82 1764.5 162.83 1765.4 162.83C1766.3 162.83 1767.15 162.84 1767.95 162.86C1769.83 162.86 1770.83 162.87 1770.95 162.89H1774.1C1775.32 162.89 1776.21 162.85 1776.77 162.77C1777.35 162.69 1777.84 162.44 1778.24 162.02C1778.66 161.58 1778.87 160.86 1778.87 159.86ZM1762.67 163.19H1762.73L1762.67 163.16V163.19ZM1775.06 172.79C1776.44 172.79 1777.47 172.74 1778.15 172.64C1778.83 172.52 1779.37 172.22 1779.77 171.74C1780.19 171.24 1780.4 170.44 1780.4 169.34C1780.4 168.28 1780.19 167.52 1779.77 167.06C1779.37 166.58 1778.83 166.29 1778.15 166.19C1777.47 166.07 1776.44 166.01 1775.06 166.01H1775.03H1762.67V172.73C1767.69 172.73 1771.32 172.75 1773.56 172.79H1775.06ZM1807.25 166.1H1791.47V172.67L1809.77 172.55V176H1787.57V153.8H1809.77L1809.8 157.25H1791.47V162.65H1807.25V166.1ZM1828.12 153.8C1829.98 153.8 1831.62 154.11 1833.04 154.73C1834.48 155.35 1835.59 156.22 1836.37 157.34C1837.17 158.44 1837.57 159.72 1837.57 161.18V161.3C1837.57 163.76 1836.88 165.63 1835.5 166.91C1834.12 168.17 1832.03 168.8 1829.23 168.8H1816.87V176H1812.94V153.8H1828.12ZM1827.91 165.47C1829.11 165.47 1830.09 165.4 1830.85 165.26C1831.63 165.12 1832.29 164.76 1832.83 164.18C1833.39 163.58 1833.67 162.65 1833.67 161.39C1833.67 160.07 1833.39 159.1 1832.83 158.48C1832.29 157.84 1831.64 157.45 1830.88 157.31C1830.12 157.17 1829.13 157.1 1827.91 157.1H1826.62C1826.04 157.1 1825.04 157.11 1823.62 157.13C1822.22 157.13 1819.96 157.13 1816.84 157.13L1816.87 165.47H1827.88H1827.91ZM1853.26 153.32C1855.8 153.32 1858.08 153.83 1860.1 154.85C1862.14 155.85 1863.73 157.24 1864.87 159.02C1866.03 160.78 1866.61 162.77 1866.61 164.99C1866.61 167.19 1866.03 169.17 1864.87 170.93C1863.73 172.69 1862.15 174.08 1860.13 175.1C1858.11 176.1 1855.83 176.6 1853.29 176.6C1850.83 176.6 1848.57 176.1 1846.51 175.1C1844.45 174.08 1842.82 172.69 1841.62 170.93C1840.42 169.15 1839.82 167.17 1839.82 164.99C1839.82 162.79 1840.42 160.8 1841.62 159.02C1842.82 157.24 1844.44 155.85 1846.48 154.85C1848.54 153.83 1850.8 153.32 1853.26 153.32ZM1853.26 173.21C1854.88 173.21 1856.41 172.89 1857.85 172.25C1859.29 171.61 1860.45 170.67 1861.33 169.43C1862.21 168.19 1862.65 166.71 1862.65 164.99C1862.65 163.31 1862.2 161.84 1861.3 160.58C1860.42 159.32 1859.25 158.36 1857.79 157.7C1856.33 157.04 1854.79 156.71 1853.17 156.71C1851.41 156.71 1849.81 157.04 1848.37 157.7C1846.95 158.36 1845.83 159.32 1845.01 160.58C1844.19 161.82 1843.78 163.29 1843.78 164.99C1843.78 166.73 1844.21 168.22 1845.07 169.46C1845.95 170.7 1847.11 171.64 1848.55 172.28C1849.99 172.9 1851.56 173.21 1853.26 173.21ZM1873.35 162.23H1889.25V153.8H1893.15V176H1889.25V165.83H1873.35V176H1869.45V153.8H1873.35V162.23ZM1900.66 153.8V171.41L1918.36 153.8H1922.26V176H1918.36V158.39L1900.66 176H1896.76V153.8H1900.66ZM1933.14 163.97L1947.96 176H1941.99L1929.75 165.71V176H1925.85V153.8H1929.75V162.38L1941.42 153.8H1947.48L1933.14 163.97ZM1976.96 176H1972.76L1969.97 170.84H1955.24L1952.45 176H1948.25L1960.28 153.8H1964.93L1976.96 176ZM1962.62 157.25L1957.22 167.18H1967.99L1962.62 157.25ZM1988.65 164.93C1988.65 162.71 1989.24 160.71 1990.42 158.93C1991.62 157.15 1993.25 155.76 1995.31 154.76C1997.37 153.74 1999.66 153.23 2002.18 153.23C2005.2 153.23 2007.85 153.98 2010.13 155.48C2012.43 156.98 2014.09 159.11 2015.11 161.87L2011.03 161.93C2010.61 160.81 2009.9 159.85 2008.9 159.05C2007.9 158.25 2006.79 157.65 2005.57 157.25C2004.37 156.83 2003.25 156.62 2002.21 156.62C2000.65 156.62 1999.12 156.95 1997.62 157.61C1996.14 158.25 1994.92 159.2 1993.96 160.46C1993.02 161.72 1992.55 163.21 1992.55 164.93C1992.55 166.69 1992.99 168.19 1993.87 169.43C1994.75 170.67 1995.92 171.61 1997.38 172.25C1998.86 172.89 2000.47 173.21 2002.21 173.21C2003.23 173.21 2004.3 173.02 2005.42 172.64C2006.54 172.24 2007.59 171.65 2008.57 170.87C2009.55 170.09 2010.33 169.14 2010.91 168.02H2015.14C2014.02 170.82 2012.33 172.95 2010.07 174.41C2007.83 175.87 2005.2 176.6 2002.18 176.6C1999.68 176.6 1997.39 176.09 1995.31 175.07C1993.25 174.05 1991.62 172.65 1990.42 170.87C1989.24 169.09 1988.65 167.11 1988.65 164.93ZM2022.04 153.8V171.41L2039.74 153.8H2043.64V176H2039.74V158.39L2022.04 176H2018.14V153.8H2022.04ZM2070.36 153.8V176H2066.46V157.25H2055.9C2055.5 160.11 2055.03 162.69 2054.49 164.99C2053.97 167.29 2053.25 169.51 2052.33 171.65C2051.71 172.91 2050.91 173.92 2049.93 174.68C2048.95 175.42 2047.85 175.86 2046.63 176V172.1C2047.77 172.1 2048.7 171.22 2049.42 169.46C2050.98 164.82 2051.97 159.6 2052.39 153.8H2070.36ZM2077.85 153.8V171.41L2095.55 153.8H2099.45V176H2095.55V158.39L2077.85 176H2073.95V153.8H2077.85ZM2106.94 162.23H2122.84V153.8H2126.74V176H2122.84V165.83H2106.94V176H2103.04V153.8H2106.94V162.23ZM2157.25 176H2153.05L2150.26 170.84H2135.53L2132.74 176H2128.54L2140.57 153.8H2145.22L2157.25 176ZM2142.91 157.25L2137.51 167.18H2148.28L2142.91 157.25Z" fill="black"/>
<rect width="557" height="295" transform="translate(2228)" fill="white"/>
<rect x="2186" y="10" width="84" height="275" fill="white"/>
<path d="M2295.09 122.97L2309.91 135H2303.94L2291.7 124.71V135H2287.8V112.8H2291.7V121.38L2303.37 112.8H2309.43L2295.09 122.97ZM2336.84 112.8L2325.68 131.64C2325.12 132.74 2324.05 133.59 2322.47 134.19C2320.91 134.79 2319.12 135.09 2317.1 135.09C2316.7 135.09 2316.39 135.08 2316.17 135.06V131.67C2318.51 131.67 2319.68 131.27 2319.68 130.47C2319.68 130.23 2319.59 129.98 2319.41 129.72L2310.35 112.8H2314.58L2323.1 128.73L2332.61 112.8H2336.84ZM2353.96 112.8C2355.82 112.8 2357.46 113.11 2358.88 113.73C2360.32 114.35 2361.43 115.22 2362.21 116.34C2363.01 117.44 2363.41 118.72 2363.41 120.18V120.3C2363.41 122.76 2362.72 124.63 2361.34 125.91C2359.96 127.17 2357.87 127.8 2355.07 127.8H2342.71V135H2338.78V112.8H2353.96ZM2353.75 124.47C2354.95 124.47 2355.93 124.4 2356.69 124.26C2357.47 124.12 2358.13 123.76 2358.67 123.18C2359.23 122.58 2359.51 121.65 2359.51 120.39C2359.51 119.07 2359.23 118.1 2358.67 117.48C2358.13 116.84 2357.48 116.45 2356.72 116.31C2355.96 116.17 2354.97 116.1 2353.75 116.1H2352.46C2351.88 116.1 2350.88 116.11 2349.46 116.13C2348.06 116.13 2345.8 116.13 2342.68 116.13L2342.71 124.47H2353.72H2353.75ZM2388.8 135H2384.6L2381.81 129.84H2367.08L2364.29 135H2360.09L2372.12 112.8H2376.77L2388.8 135ZM2374.46 116.25L2369.06 126.18H2379.83L2374.46 116.25ZM2382.36 116.16V112.8H2406.99L2382.36 116.16ZM2406.99 112.8V116.25H2396.7V135H2392.8V116.25H2382.36V112.8H2406.99ZM2420.14 112.32C2422.68 112.32 2424.96 112.83 2426.98 113.85C2429.02 114.85 2430.61 116.24 2431.75 118.02C2432.91 119.78 2433.49 121.77 2433.49 123.99C2433.49 126.19 2432.91 128.17 2431.75 129.93C2430.61 131.69 2429.03 133.08 2427.01 134.1C2424.99 135.1 2422.71 135.6 2420.17 135.6C2417.71 135.6 2415.45 135.1 2413.39 134.1C2411.33 133.08 2409.7 131.69 2408.5 129.93C2407.3 128.15 2406.7 126.17 2406.7 123.99C2406.7 121.79 2407.3 119.8 2408.5 118.02C2409.7 116.24 2411.32 114.85 2413.36 113.85C2415.42 112.83 2417.68 112.32 2420.14 112.32ZM2420.14 132.21C2421.76 132.21 2423.29 131.89 2424.73 131.25C2426.17 130.61 2427.33 129.67 2428.21 128.43C2429.09 127.19 2429.53 125.71 2429.53 123.99C2429.53 122.31 2429.08 120.84 2428.18 119.58C2427.3 118.32 2426.13 117.36 2424.67 116.7C2423.21 116.04 2421.67 115.71 2420.05 115.71C2418.29 115.71 2416.69 116.04 2415.25 116.7C2413.83 117.36 2412.71 118.32 2411.89 119.58C2411.07 120.82 2410.66 122.29 2410.66 123.99C2410.66 125.73 2411.09 127.22 2411.95 128.46C2412.83 129.7 2413.99 130.64 2415.43 131.28C2416.87 131.9 2418.44 132.21 2420.14 132.21ZM2451.52 112.8C2453.38 112.8 2455.02 113.11 2456.44 113.73C2457.88 114.35 2458.99 115.22 2459.77 116.34C2460.57 117.44 2460.97 118.72 2460.97 120.18V120.3C2460.97 122.76 2460.28 124.63 2458.9 125.91C2457.52 127.17 2455.43 127.8 2452.63 127.8H2440.27V135H2436.34V112.8H2451.52ZM2451.31 124.47C2452.51 124.47 2453.49 124.4 2454.25 124.26C2455.03 124.12 2455.69 123.76 2456.23 123.18C2456.79 122.58 2457.07 121.65 2457.07 120.39C2457.07 119.07 2456.79 118.1 2456.23 117.48C2455.69 116.84 2455.04 116.45 2454.28 116.31C2453.52 116.17 2452.53 116.1 2451.31 116.1H2450.02C2449.44 116.1 2448.44 116.11 2447.02 116.13C2445.62 116.13 2443.36 116.13 2440.24 116.13L2440.27 124.47H2451.28H2451.31Z" fill="#B8CEDD"/>
<path d="M2463.36 119.85H2467.83V124.05H2463.36V119.85ZM2463.36 130.8H2467.83V135H2463.36V130.8ZM2291.7 162.23H2307.6V153.8H2311.5V176H2307.6V165.83H2291.7V176H2287.8V153.8H2291.7V162.23ZM2319 153.8V171.41L2336.7 153.8H2340.6V176H2336.7V158.39L2319 176H2315.1V153.8H2319ZM2351.49 163.97L2366.31 176H2360.34L2348.1 165.71V176H2344.2V153.8H2348.1V162.38L2359.77 153.8H2365.83L2351.49 163.97ZM2376.9 153.32C2379.44 153.32 2381.72 153.83 2383.74 154.85C2385.78 155.85 2387.37 157.24 2388.51 159.02C2389.67 160.78 2390.25 162.77 2390.25 164.99C2390.25 167.19 2389.67 169.17 2388.51 170.93C2387.37 172.69 2385.79 174.08 2383.77 175.1C2381.75 176.1 2379.47 176.6 2376.93 176.6C2374.47 176.6 2372.21 176.1 2370.15 175.1C2368.09 174.08 2366.46 172.69 2365.26 170.93C2364.06 169.15 2363.46 167.17 2363.46 164.99C2363.46 162.79 2364.06 160.8 2365.26 159.02C2366.46 157.24 2368.08 155.85 2370.12 154.85C2372.18 153.83 2374.44 153.32 2376.9 153.32ZM2376.9 173.21C2378.52 173.21 2380.05 172.89 2381.49 172.25C2382.93 171.61 2384.09 170.67 2384.97 169.43C2385.85 168.19 2386.29 166.71 2386.29 164.99C2386.29 163.31 2385.84 161.84 2384.94 160.58C2384.06 159.32 2382.89 158.36 2381.43 157.7C2379.97 157.04 2378.43 156.71 2376.81 156.71C2375.05 156.71 2373.45 157.04 2372.01 157.7C2370.59 158.36 2369.47 159.32 2368.65 160.58C2367.83 161.82 2367.42 163.29 2367.42 164.99C2367.42 166.73 2367.85 168.22 2368.71 169.46C2369.59 170.7 2370.75 171.64 2372.19 172.28C2373.63 172.9 2375.2 173.21 2376.9 173.21ZM2414.44 153.8V176H2410.54V157.25H2399.98C2399.58 160.11 2399.11 162.69 2398.57 164.99C2398.05 167.29 2397.33 169.51 2396.41 171.65C2395.79 172.91 2394.99 173.92 2394.01 174.68C2393.03 175.42 2391.93 175.86 2390.71 176V172.1C2391.85 172.1 2392.78 171.22 2393.5 169.46C2395.06 164.82 2396.05 159.6 2396.47 153.8H2414.44ZM2444.93 176H2440.73L2437.94 170.84H2423.21L2420.42 176H2416.22L2428.25 153.8H2432.9L2444.93 176ZM2430.59 157.25L2425.19 167.18H2435.96L2430.59 157.25ZM2459.43 154.25C2457.19 154.25 2455.38 153.76 2454 152.78C2452.64 151.8 2451.96 150.3 2451.96 148.28H2454.84C2454.82 149.4 2455.21 150.3 2456.01 150.98C2456.83 151.64 2457.93 151.97 2459.31 151.97C2460.71 151.97 2461.83 151.64 2462.67 150.98C2463.51 150.3 2463.93 149.4 2463.93 148.28H2466.81C2466.81 150.26 2466.12 151.75 2464.74 152.75C2463.38 153.75 2461.61 154.25 2459.43 154.25ZM2450.64 171.41L2468.34 153.8H2472.24V176H2468.34V158.39L2450.64 176H2446.74V153.8H2450.64V171.41ZM2505.97 153.8H2509.87V172.25H2512.3V179.9H2508.25V176H2486.32V153.8H2490.22V172.25H2505.97V153.8ZM2534.17 164.36C2535.85 164.7 2537.12 165.29 2537.98 166.13C2538.84 166.95 2539.27 168.13 2539.27 169.67V169.79C2539.27 171.65 2538.83 173.02 2537.95 173.9C2537.09 174.78 2535.93 175.35 2534.47 175.61C2533.03 175.85 2531.01 175.99 2528.41 176.03H2528.35H2526.91L2513.5 176V153.8H2529.79C2532.11 153.82 2533.96 154.3 2535.34 155.24C2536.72 156.18 2537.41 157.51 2537.41 159.23V159.35C2537.41 160.65 2537.14 161.71 2536.6 162.53C2536.06 163.35 2535.25 163.96 2534.17 164.36ZM2533.57 159.86C2533.57 158.94 2533.37 158.27 2532.97 157.85C2532.59 157.43 2532.09 157.17 2531.47 157.07C2530.85 156.97 2529.96 156.92 2528.8 156.92H2528.74H2517.37V162.8C2518.29 162.82 2519.2 162.83 2520.1 162.83C2521 162.83 2521.85 162.84 2522.65 162.86C2524.53 162.86 2525.53 162.87 2525.65 162.89H2528.8C2530.02 162.89 2530.91 162.85 2531.47 162.77C2532.05 162.69 2532.54 162.44 2532.94 162.02C2533.36 161.58 2533.57 160.86 2533.57 159.86ZM2517.37 163.19H2517.43L2517.37 163.16V163.19ZM2529.76 172.79C2531.14 172.79 2532.17 172.74 2532.85 172.64C2533.53 172.52 2534.07 172.22 2534.47 171.74C2534.89 171.24 2535.1 170.44 2535.1 169.34C2535.1 168.28 2534.89 167.52 2534.47 167.06C2534.07 166.58 2533.53 166.29 2532.85 166.19C2532.17 166.07 2531.14 166.01 2529.76 166.01H2529.73H2517.37V172.73C2522.39 172.73 2526.02 172.75 2528.26 172.79H2529.76ZM2561.95 166.1H2546.17V172.67L2564.47 172.55V176H2542.27V153.8H2564.47L2564.5 157.25H2546.17V162.65H2561.95V166.1ZM2567.19 157.16V153.8H2591.82L2567.19 157.16ZM2591.82 153.8V157.25H2581.53V176H2577.63V157.25H2567.19V153.8H2591.82ZM2598.88 162.23H2614.78V153.8H2618.68V176H2614.78V165.83H2598.88V176H2594.98V153.8H2598.88V162.23ZM2626.18 153.8V171.41L2643.88 153.8H2647.78V176H2643.88V158.39L2626.18 176H2622.28V153.8H2626.18ZM2658.66 163.97L2673.48 176H2667.51L2655.27 165.71V176H2651.37V153.8H2655.27V162.38L2666.94 153.8H2673L2658.66 163.97ZM2684.07 153.32C2686.61 153.32 2688.89 153.83 2690.91 154.85C2692.95 155.85 2694.54 157.24 2695.68 159.02C2696.84 160.78 2697.42 162.77 2697.42 164.99C2697.42 167.19 2696.84 169.17 2695.68 170.93C2694.54 172.69 2692.96 174.08 2690.94 175.1C2688.92 176.1 2686.64 176.6 2684.1 176.6C2681.64 176.6 2679.38 176.1 2677.32 175.1C2675.26 174.08 2673.63 172.69 2672.43 170.93C2671.23 169.15 2670.63 167.17 2670.63 164.99C2670.63 162.79 2671.23 160.8 2672.43 159.02C2673.63 157.24 2675.25 155.85 2677.29 154.85C2679.35 153.83 2681.61 153.32 2684.07 153.32ZM2684.07 173.21C2685.69 173.21 2687.22 172.89 2688.66 172.25C2690.1 171.61 2691.26 170.67 2692.14 169.43C2693.02 168.19 2693.46 166.71 2693.46 164.99C2693.46 163.31 2693.01 161.84 2692.11 160.58C2691.23 159.32 2690.06 158.36 2688.6 157.7C2687.14 157.04 2685.6 156.71 2683.98 156.71C2682.22 156.71 2680.62 157.04 2679.18 157.7C2677.76 158.36 2676.64 159.32 2675.82 160.58C2675 161.82 2674.59 163.29 2674.59 164.99C2674.59 166.73 2675.02 168.22 2675.88 169.46C2676.76 170.7 2677.92 171.64 2679.36 172.28C2680.8 172.9 2682.37 173.21 2684.07 173.21ZM2720.94 164.36C2722.62 164.7 2723.89 165.29 2724.75 166.13C2725.61 166.95 2726.04 168.13 2726.04 169.67V169.79C2726.04 171.65 2725.6 173.02 2724.72 173.9C2723.86 174.78 2722.7 175.35 2721.24 175.61C2719.8 175.85 2717.78 175.99 2715.18 176.03H2715.12H2713.68L2700.27 176V153.8H2716.56C2718.88 153.82 2720.73 154.3 2722.11 155.24C2723.49 156.18 2724.18 157.51 2724.18 159.23V159.35C2724.18 160.65 2723.91 161.71 2723.37 162.53C2722.83 163.35 2722.02 163.96 2720.94 164.36ZM2720.34 159.86C2720.34 158.94 2720.14 158.27 2719.74 157.85C2719.36 157.43 2718.86 157.17 2718.24 157.07C2717.62 156.97 2716.73 156.92 2715.57 156.92H2715.51H2704.14V162.8C2705.06 162.82 2705.97 162.83 2706.87 162.83C2707.77 162.83 2708.62 162.84 2709.42 162.86C2711.3 162.86 2712.3 162.87 2712.42 162.89H2715.57C2716.79 162.89 2717.68 162.85 2718.24 162.77C2718.82 162.69 2719.31 162.44 2719.71 162.02C2720.13 161.58 2720.34 160.86 2720.34 159.86ZM2704.14 163.19H2704.2L2704.14 163.16V163.19ZM2716.53 172.79C2717.91 172.79 2718.94 172.74 2719.62 172.64C2720.3 172.52 2720.84 172.22 2721.24 171.74C2721.66 171.24 2721.87 170.44 2721.87 169.34C2721.87 168.28 2721.66 167.52 2721.24 167.06C2720.84 166.58 2720.3 166.29 2719.62 166.19C2718.94 166.07 2717.91 166.01 2716.53 166.01H2716.5H2704.14V172.73C2709.16 172.73 2712.79 172.75 2715.03 172.79H2716.53Z" fill="black"/>
<rect width="557" height="295" transform="translate(2785)" fill="white"/>
<rect x="2727" y="10" width="84" height="275" fill="white"/>
<path d="M2999.83 112.8V116.25H2985.7V135H2981.8V112.8H2999.83ZM3018.02 112.8C3019.88 112.8 3021.52 113.11 3022.94 113.73C3024.38 114.35 3025.49 115.22 3026.27 116.34C3027.07 117.44 3027.47 118.72 3027.47 120.18V120.3C3027.47 122.76 3026.78 124.63 3025.4 125.91C3024.02 127.17 3021.93 127.8 3019.13 127.8H3006.77V135H3002.84V112.8H3018.02ZM3017.81 124.47C3019.01 124.47 3019.99 124.4 3020.75 124.26C3021.53 124.12 3022.19 123.76 3022.73 123.18C3023.29 122.58 3023.57 121.65 3023.57 120.39C3023.57 119.07 3023.29 118.1 3022.73 117.48C3022.19 116.84 3021.54 116.45 3020.78 116.31C3020.02 116.17 3019.03 116.1 3017.81 116.1H3016.52C3015.94 116.1 3014.94 116.11 3013.52 116.13C3012.12 116.13 3009.86 116.13 3006.74 116.13L3006.77 124.47H3017.78H3017.81ZM3055.3 112.8L3044.14 131.64C3043.58 132.74 3042.51 133.59 3040.93 134.19C3039.37 134.79 3037.58 135.09 3035.56 135.09C3035.16 135.09 3034.85 135.08 3034.63 135.06V131.67C3036.97 131.67 3038.14 131.27 3038.14 130.47C3038.14 130.23 3038.05 129.98 3037.87 129.72L3028.81 112.8H3033.04L3041.56 128.73L3051.07 112.8H3055.3ZM3081.54 112.8V135H3077.49V116.25H3061.29V135H3057.24V112.8H3081.54ZM3109.43 112.8V135H3105.38V116.25H3089.18V135H3085.13V112.8H3109.43ZM3139.93 135H3135.73L3132.94 129.84H3118.21L3115.42 135H3111.22L3123.25 112.8H3127.9L3139.93 135ZM3125.59 116.25L3120.19 126.18H3130.96L3125.59 116.25Z" fill="#E7EBC9"/>
<path d="M3141.13 119.85H3145.6V124.05H3141.13V119.85ZM3141.13 130.8H3145.6V135H3141.13V130.8ZM2992.48 161.6C2996.08 161.6 2998.8 161.88 3000.64 162.44C3002.48 163 3003.69 163.76 3004.27 164.72C3004.87 165.68 3005.17 166.92 3005.17 168.44V168.53C3005.17 169.77 3004.94 170.92 3004.48 171.98C3004.02 173.04 3002.92 173.99 3001.18 174.83C2999.46 175.67 2996.87 176.09 2993.41 176.09H2981.8V153.89H3003.73V157.34H2985.7V161.6H2992.48ZM2994.46 172.76C2996.86 172.76 2998.59 172.41 2999.65 171.71C3000.73 170.99 3001.27 169.92 3001.27 168.5C3001.27 167.56 3001.04 166.83 3000.58 166.31C3000.14 165.79 2999.43 165.43 2998.45 165.23C2997.49 165.01 2996.16 164.9 2994.46 164.9H2994.43H2985.7V172.7C2990.12 172.7 2992.81 172.72 2993.77 172.76H2994.46ZM3034.48 172.61V176H3007.42V174.5C3007.42 171.86 3007.82 169.86 3008.62 168.5C3009.44 167.14 3010.51 166.2 3011.83 165.68C3013.15 165.16 3015 164.71 3017.38 164.33C3017.96 164.23 3018.66 164.13 3019.48 164.03C3020.32 163.93 3020.97 163.85 3021.43 163.79C3023.41 163.57 3024.96 163.36 3026.08 163.16C3027.2 162.94 3028.14 162.62 3028.9 162.2C3029.66 161.76 3030.04 161.17 3030.04 160.43C3030.04 158.99 3029.12 157.95 3027.28 157.31C3025.44 156.65 3023.19 156.33 3020.53 156.35C3017.97 156.33 3015.79 156.71 3013.99 157.49C3012.21 158.27 3011.32 159.5 3011.32 161.18L3007.42 161.15C3007.42 159.17 3008.14 157.58 3009.58 156.38C3011.02 155.18 3012.73 154.34 3014.71 153.86C3016.71 153.38 3018.63 153.14 3020.47 153.14C3023.89 153.14 3026.99 153.63 3029.77 154.61C3032.55 155.59 3033.94 157.52 3033.94 160.4C3033.94 161.98 3033.22 163.23 3031.78 164.15C3030.34 165.07 3028.7 165.72 3026.86 166.1C3025.04 166.46 3022.92 166.77 3020.5 167.03C3019.32 167.13 3018.5 167.23 3018.04 167.33C3015.46 167.55 3013.69 168.19 3012.73 169.25C3011.79 170.31 3011.32 171.43 3011.32 172.61H3034.48ZM3060.72 168.23H3056.82H3060.72ZM3060.72 168.26C3060.64 171.44 3059.41 173.63 3057.03 174.83C3054.65 176.03 3051.92 176.63 3048.84 176.63C3047.2 176.63 3045.48 176.38 3043.68 175.88C3041.9 175.38 3040.37 174.53 3039.09 173.33C3037.81 172.13 3037.17 170.56 3037.17 168.62L3041.07 168.59C3041.07 170.15 3041.79 171.33 3043.23 172.13C3044.69 172.93 3046.46 173.38 3048.54 173.48C3050.84 173.54 3052.79 173.15 3054.39 172.31C3056.01 171.47 3056.82 170.12 3056.82 168.26C3056.8 166.6 3056.16 165.31 3054.9 164.39C3053.64 163.47 3051.59 163.01 3048.75 163.01C3047.63 163.01 3046.46 163.16 3045.24 163.46C3044.04 163.76 3043.03 164.21 3042.21 164.81C3041.39 165.39 3040.98 166.09 3040.98 166.91V167.09L3037.26 167.21V153.8H3059.67V156.74H3040.98V162.59C3041.92 161.71 3043.17 161.11 3044.73 160.79C3046.31 160.45 3048.15 160.28 3050.25 160.28C3052.29 160.28 3054.1 160.6 3055.68 161.24C3057.26 161.86 3058.49 162.77 3059.37 163.97C3060.27 165.17 3060.72 166.59 3060.72 168.23V168.26ZM3086.9 172.4H3089.87V178.88H3086.09V176.03L3066.68 176V178.88H3062.9V172.4H3064.4C3066.24 169.64 3067.59 166.77 3068.45 163.79C3069.33 160.81 3069.77 157.48 3069.77 153.8H3086.87L3086.9 172.4ZM3073.37 157.1C3072.91 162.9 3071.27 168 3068.45 172.4H3083.15V157.13L3073.37 157.1ZM3119.72 168.65C3119.7 171.43 3118.44 173.46 3115.94 174.74C3113.44 176.02 3110.18 176.66 3106.16 176.66C3103.24 176.66 3100.72 176.27 3098.6 175.49C3096.5 174.71 3094.9 173.62 3093.8 172.22C3092.7 170.82 3092.15 169.19 3092.15 167.33H3096.02C3096.02 169.39 3097 170.91 3098.96 171.89C3100.94 172.85 3103.34 173.33 3106.16 173.33C3108.8 173.35 3111.04 172.98 3112.88 172.22C3114.74 171.46 3115.68 170.26 3115.7 168.62C3115.7 167.98 3115.55 167.5 3115.25 167.18C3114.95 166.84 3114.24 166.59 3113.12 166.43C3112 166.25 3110.22 166.16 3107.78 166.16H3102.23V162.74H3107.84H3109.31C3110.55 162.74 3111.58 162.69 3112.4 162.59C3113.22 162.47 3113.89 162.21 3114.41 161.81C3114.95 161.41 3115.22 160.81 3115.22 160.01C3115.22 158.85 3114.34 157.98 3112.58 157.4C3110.82 156.82 3108.68 156.51 3106.16 156.47C3103.34 156.43 3100.94 156.74 3098.96 157.4C3097 158.04 3096.02 159.09 3096.02 160.55H3092.15C3092.15 157.67 3093.6 155.72 3096.5 154.7C3099.42 153.66 3102.64 153.14 3106.16 153.14C3108.3 153.14 3110.29 153.28 3112.13 153.56C3113.99 153.82 3115.62 154.44 3117.02 155.42C3118.42 156.4 3119.12 157.85 3119.12 159.77C3119.12 161.91 3118.34 163.41 3116.78 164.27C3118.72 165.09 3119.7 166.53 3119.72 168.59V168.62V168.65ZM3131.18 153.8V176H3127.28V160.31H3122.27V157.58C3124.07 157.58 3125.4 157.35 3126.26 156.89C3127.14 156.43 3127.67 155.94 3127.85 155.42C3128.05 154.88 3128.15 154.34 3128.15 153.8H3131.18ZM3143.25 153.8V176H3139.35V160.31H3134.34V157.58C3136.14 157.58 3137.47 157.35 3138.33 156.89C3139.21 156.43 3139.74 155.94 3139.92 155.42C3140.12 154.88 3140.22 154.34 3140.22 153.8H3143.25Z" fill="black"/>
</svg>
